<?xml version="1.0" encoding="UTF-8" standalone="no"?>
<svg
   xmlns:dc="http://purl.org/dc/elements/1.1/"
   xmlns:cc="http://creativecommons.org/ns#"
   xmlns:rdf="http://www.w3.org/1999/02/22-rdf-syntax-ns#"
   xmlns:svg="http://www.w3.org/2000/svg"
   xmlns="http://www.w3.org/2000/svg"
   viewBox="0 0 320 310"
   height="310"
   width="320"
   version="1.1"
   id="svg2">
  <metadata
     id="metadata8">
    <rdf:RDF>
      <cc:Work
         rdf:about="">
        <dc:format>image/svg+xml</dc:format>
        <dc:type
           rdf:resource="http://purl.org/dc/dcmitype/StillImage" />
        <dc:title></dc:title>
      </cc:Work>
    </rdf:RDF>
  </metadata>
  <defs
     id="defs6" />
  <g
     transform="translate(0,-5)"
     id="g4138">
    <path
       id="path4144"
       d="m 40.833334,266.66666 c -1.140614,-1.14061 -1.056612,-8.88112 0.104162,-9.59852 0.515625,-0.31868 0.9375,1.89812 0.9375,4.92622 0,3.0281 -0.04687,5.50564 -0.104162,5.50564 -0.05729,0 -0.479168,-0.375 -0.9375,-0.83334 z M 103.99369,261.875 c 0.0255,-2.0625 0.30562,-2.75492 0.62255,-1.53871 0.31693,1.21621 0.29608,2.90371 -0.0463,3.75 -0.34241,0.84628 -0.60172,-0.14879 -0.57624,-2.21129 z m 23.75,0 c 0.0255,-2.0625 0.30562,-2.75492 0.62255,-1.53871 0.31692,1.21621 0.29608,2.90371 -0.0463,3.75 -0.34241,0.84628 -0.60172,-0.14879 -0.57624,-2.21129 z m 63.75,0 c 0.0255,-2.0625 0.30562,-2.75492 0.62255,-1.53871 0.31692,1.21621 0.29608,2.90371 -0.0464,3.75 -0.34241,0.84628 -0.60171,-0.14879 -0.57624,-2.21129 z m 23.75,0 c 0.0255,-2.0625 0.30562,-2.75492 0.62255,-1.53871 0.31692,1.21621 0.29608,2.90371 -0.0464,3.75 -0.34241,0.84628 -0.60171,-0.14879 -0.57624,-2.21129 z m 63.75,0 c 0.0255,-2.0625 0.30562,-2.75492 0.62255,-1.53871 0.31692,1.21621 0.29608,2.90371 -0.0464,3.75 -0.34241,0.84628 -0.60171,-0.14879 -0.57624,-2.21129 z M 40.197369,160 c 0,-1.71875 0.283716,-2.42188 0.630482,-1.5625 0.346765,0.85937 0.346765,2.26562 0,3.125 -0.346766,0.85937 -0.630482,0.15625 -0.630482,-1.5625 z m 238.749991,0 c 0,-1.71875 0.28373,-2.42188 0.63049,-1.5625 0.34676,0.85937 0.34676,2.26562 0,3.125 -0.34676,0.85937 -0.63049,0.15625 -0.63049,-1.5625 z m -151.34867,-0.72916 c 0.06,-1.45619 0.35617,-1.75238 0.7552,-0.75522 0.36108,0.90234 0.31668,1.98047 -0.0986,2.39584 -0.41537,0.41537 -0.7108,-0.32292 -0.65652,-1.64062 z m 63.75,0 c 0.06,-1.45619 0.35617,-1.75238 0.7552,-0.75522 0.36109,0.90234 0.31669,1.98047 -0.0986,2.39584 -0.41537,0.41537 -0.7108,-0.32292 -0.65652,-1.64062 z M 83.4375,137.81268 c 42.10938,-0.18254 111.01562,-0.18254 153.125,0 42.10937,0.18254 7.65625,0.33189 -76.5625,0.33189 -84.21875,0 -118.671875,-0.14935 -76.5625,-0.33189 z m 232.06874,-14.37518 -2.38124,-2.8125 2.8125,2.38124 c 2.64305,2.23777 3.38155,3.24376 2.38124,3.24376 -0.2372,0 -1.50283,-1.26562 -2.8125,-2.8125 z M 127.1875,100.31341 c 18.04687,-0.1952 47.57812,-0.1952 65.625,0 18.04687,0.19521 3.28125,0.35493 -32.8125,0.35493 -36.09375,0 -50.85937,-0.15972 -32.8125,-0.35493 z"
       style="fill:#c8c8c8" />
    <path
       id="path4142"
       d="m 26.650093,288.75 c 0,-4.46875 0.226868,-6.29688 0.504152,-4.0625 0.277283,2.23437 0.277283,5.89062 0,8.125 -0.277284,2.23437 -0.504152,0.40625 -0.504152,-4.0625 z m 266.249997,0 c 0,-4.46875 0.22687,-6.29688 0.50416,-4.0625 0.27728,2.23437 0.27728,5.89062 0,8.125 -0.27729,2.23437 -0.50416,0.40625 -0.50416,-4.0625 z M 57.1875,266.56625 c 8.421875,-0.21626 22.203125,-0.21626 30.625,0 8.421875,0.21626 1.53125,0.3932 -15.3125,0.3932 -16.84375,0 -23.734375,-0.17694 -15.3125,-0.3932 z m 87.5,0 c 8.42187,-0.21626 22.20312,-0.21626 30.625,0 8.42187,0.21626 1.53125,0.3932 -15.3125,0.3932 -16.84375,0 -23.73438,-0.17694 -15.3125,-0.3932 z m 87.5,0 c 8.42187,-0.21626 22.20312,-0.21626 30.625,0 8.42187,0.21626 1.53125,0.3932 -15.3125,0.3932 -16.84375,0 -23.73438,-0.17694 -15.3125,-0.3932 z M 44.702074,256.61592 c 1.554891,-0.29898 3.804891,-0.28763 5,0.0252 1.19511,0.31287 -0.07708,0.5575 -2.827074,0.54363 -2.75,-0.0139 -3.727816,-0.26986 -2.172926,-0.56885 z m 48.3667,-0.6867 c -0.33152,-0.86392 -0.446754,-20.69205 -0.256075,-44.0625 l 0.346689,-42.49172 0.295306,43.36204 0.295306,43.36205 4.6875,0.49032 4.6875,0.49033 -4.726731,0.21013 c -2.812566,0.12503 -4.97083,-0.42598 -5.329495,-1.36065 z m 40.977616,0.70783 4.67139,-0.53604 0.35326,-43.05084 0.35327,-43.05083 -0.0246,43.43783 -0.0247,43.43783 -5,0.14904 -5,0.14905 4.67139,-0.53604 z m 46.52238,-0.70783 c -0.33152,-0.86392 -0.44675,-20.69205 -0.25607,-44.0625 l 0.34669,-42.49172 0.29531,43.36204 0.2953,43.36205 4.6875,0.49032 4.6875,0.49033 -4.72673,0.21013 c -2.81257,0.12503 -4.97083,-0.42598 -5.32949,-1.36065 z m 40.97762,0.70783 4.67138,-0.53604 0.35327,-43.05084 0.35327,-43.05083 -0.0246,43.43783 -0.0247,43.43783 -5,0.14904 -5,0.14905 4.67139,-0.53604 z m 49.40568,-0.0211 c 1.55489,-0.29898 3.80489,-0.28763 5,0.0252 1.19512,0.31287 -0.0771,0.5575 -2.82707,0.54363 -2.75,-0.0139 -3.72781,-0.26986 -2.17293,-0.56885 z M 42.5,153.27805 c 0,-0.25956 0.984375,-1.24394 2.1875,-2.1875 1.98257,-1.55484 2.026782,-1.51063 0.471944,0.47195 C 43.526482,153.64469 42.5,154.30685 42.5,153.27805 Z m 87.5,0 c 0,-0.25956 0.98437,-1.24394 2.1875,-2.1875 1.98257,-1.55484 2.02679,-1.51063 0.47195,0.47195 C 131.02649,153.64469 130,154.30685 130,153.27805 Z m 57.34055,-1.71555 c -1.55484,-1.98258 -1.51062,-2.02679 0.47195,-0.47195 2.08219,1.63296 2.74435,2.65945 1.71555,2.65945 -0.25956,0 -1.24394,-0.98438 -2.1875,-2.1875 z m 87.5,0 c -1.55484,-1.98258 -1.51063,-2.02679 0.47195,-0.47195 2.08219,1.63296 2.74435,2.65945 1.71555,2.65945 -0.25956,0 -1.24394,-0.98438 -2.1875,-2.1875 z"
       style="fill:#afafaf" />
    <path
       id="path4140"
       d="M 0,307.58929 C 0,297.08682 1.1597022,296.25 15.714286,296.25 l 11.785714,0 0,-8.08103 c 0,-6.71013 0.410163,-8.30052 2.417824,-9.375 3.361046,-1.79877 256.803306,-1.79877 260.164346,0 2.00767,1.07448 2.41783,2.66487 2.41783,9.375 l 0,8.08103 11.68126,0 C 318.53319,296.25 320,297.33127 320,307.91093 L 320,315 160,315 0,315 0,307.58929 Z M 41.25,261.875 c 0,-4.27084 0.11905,-4.375 5,-4.375 l 5,0 0,-43.75 C 51.25,175.12255 51.02381,170 49.318181,170 45.748334,170 41.25,164.16976 41.25,159.54294 c 0,-3.31072 0.919155,-5.09413 3.932101,-7.62935 l 3.932102,-3.30864 24.303657,0.38502 24.303656,0.38503 3.014244,3.5072 c 5.03368,5.85691 3.09637,13.52227 -4.072749,16.11466 l -4.194819,1.51686 0.328404,43.18064 0.328404,43.18064 5.3125,0.38437 c 5.14676,0.37238 5.3125,0.51863 5.3125,4.6875 l 0,4.30313 -31.25,0 -31.25,0 0,-4.375 z m 87.5,0.0719 c 0,-4.16887 0.16574,-4.31512 5.3125,-4.6875 l 5.3125,-0.38437 0.32854,-43.29796 0.32853,-43.29797 -3.17283,-0.79633 c -8.42744,-2.11515 -10.7016,-10.83269 -4.45539,-17.07889 l 3.65384,-3.65385 23.94231,0 23.94231,0 3.65384,3.65385 c 6.11389,6.11387 3.75894,15.01722 -4.52179,17.09555 l -3.10644,0.77967 0.32854,43.29797 0.32854,43.29796 5.3125,0.38437 c 5.14676,0.37238 5.3125,0.51863 5.3125,4.6875 l 0,4.30313 -31.25,0 -31.25,0 0,-4.30313 z m 87.5,0 c 0,-4.16887 0.16574,-4.31512 5.3125,-4.6875 l 5.3125,-0.38437 0.3284,-43.18064 0.32841,-43.18064 -4.19482,-1.51686 c -7.16912,-2.59239 -9.10643,-10.25775 -4.07275,-16.11466 l 3.01425,-3.5072 24.30365,-0.38503 24.30366,-0.38502 3.9321,3.30864 c 3.01295,2.53522 3.9321,4.31863 3.9321,7.62935 0,4.62682 -4.49834,10.45706 -8.06819,10.45706 -1.70562,0 -1.93181,5.12255 -1.93181,43.75 l 0,43.75 5,0 c 4.88095,0 5,0.10412 5,4.375 l 0,4.375 -31.25,0 -31.25,0 0,-4.30313 z M 3.75,135 C 0.48579469,131.7358 0.58639579,128.36976 4.0625,124.54401 9.355045,118.71909 157.6915,5 159.99704,5 c 2.29078,0 150.58198,113.69641 155.94046,119.56117 3.47617,3.80462 3.57705,7.17428 0.3125,10.43883 -2.4729,2.4729 -4.16666,2.5 -156.25,2.5 C 7.9166666,137.5 6.2228998,137.4729 3.75,135 Z M 223.09027,98.827919 C 218.30582,94.127301 160.6117,50.029691 159.64944,50.337902 157.74396,50.948226 95.149163,99.390926 95.07522,100.3125 c -0.04137,0.51563 29.29978,0.9375 65.20255,0.9375 64.59265,0 65.2519,-0.0254 62.8125,-2.422081 z"
       style="fill:#808080" />
  </g>
</svg>
