<?xml version="1.0" encoding="UTF-8" standalone="no"?>
<svg
   xmlns:dc="http://purl.org/dc/elements/1.1/"
   xmlns:cc="http://creativecommons.org/ns#"
   xmlns:rdf="http://www.w3.org/1999/02/22-rdf-syntax-ns#"
   xmlns:svg="http://www.w3.org/2000/svg"
   xmlns="http://www.w3.org/2000/svg"
   viewBox="0 0 317.5 236.94737"
   height="236.94737"
   width="317.5"
   version="1.1"
   id="svg2">
  <metadata
     id="metadata8">
    <rdf:RDF>
      <cc:Work
         rdf:about="">
        <dc:format>image/svg+xml</dc:format>
        <dc:type
           rdf:resource="http://purl.org/dc/dcmitype/StillImage" />
        <dc:title></dc:title>
      </cc:Work>
    </rdf:RDF>
  </metadata>
  <defs
     id="defs6" />
  <g
     transform="translate(-1.25,-41.402536)"
     id="g4138">
    <path
       id="path4144"
       d="m 155.9375,277.84575 c 2.23437,-0.27728 5.89062,-0.27728 8.125,0 2.23437,0.27729 0.40625,0.50416 -4.0625,0.50416 -4.46875,0 -6.29688,-0.22687 -4.0625,-0.50416 z m -19.92188,-1.19964 c 0.90234,-0.36108 1.98047,-0.31668 2.39584,0.0986 0.41536,0.41536 -0.32292,0.7108 -1.64062,0.65652 -1.45619,-0.06 -1.75238,-0.35617 -0.75522,-0.7552 z m 46.25,0 c 0.90234,-0.36108 1.98047,-0.31668 2.39584,0.0986 0.41537,0.41536 -0.32292,0.7108 -1.64062,0.65652 -1.45619,-0.06 -1.75238,-0.35617 -0.75522,-0.7552 z m -56.24999,-1.25 c 0.90233,-0.36108 1.98046,-0.31668 2.39583,0.0986 0.41536,0.41536 -0.32292,0.7108 -1.64062,0.65652 -1.45619,-0.06 -1.75238,-0.35617 -0.75521,-0.7552 z m 66.24999,0 c 0.90234,-0.36108 1.98047,-0.31668 2.39584,0.0986 0.41537,0.41536 -0.32292,0.7108 -1.64062,0.65652 -1.45619,-0.06 -1.75238,-0.35617 -0.75522,-0.7552 z M 84.840556,260.3125 c -1.554838,-1.98258 -1.510626,-2.02679 0.471944,-0.47195 2.082185,1.63296 2.744349,2.65945 1.715556,2.65945 -0.25957,0 -1.243945,-0.98438 -2.1875,-2.1875 z M 145.625,241.25 c -0.4249,-0.6875 -0.17685,-1.25 0.55122,-1.25 0.72808,0 1.32378,0.5625 1.32378,1.25 0,0.6875 -0.24805,1.25 -0.55123,1.25 -0.30317,0 -0.89887,-0.5625 -1.32377,-1.25 z m 26.875,0 c 0,-0.6875 0.5957,-1.25 1.32377,-1.25 0.72808,0 0.97613,0.5625 0.55123,1.25 -0.4249,0.6875 -1.0206,1.25 -1.32378,1.25 -0.30317,0 -0.55122,-0.5625 -0.55122,-1.25 z M 159.375,190 c -0.4249,-0.6875 -0.17685,-1.25 0.55122,-1.25 0.72808,0 1.32378,0.5625 1.32378,1.25 0,0.6875 -0.24805,1.25 -0.55123,1.25 -0.30317,0 -0.89887,-0.5625 -1.32377,-1.25 z M 91.25,159.50874 c 0,-0.2702 0.872965,-0.82625 1.939923,-1.23569 1.112406,-0.42686 1.614152,-0.21731 1.176228,0.49126 C 93.632079,159.95207 91.25,160.52112 91.25,159.50874 Z M 135,158.75 c 0,-0.6875 0.5957,-1.25 1.32377,-1.25 0.72808,0 0.97613,0.5625 0.55123,1.25 -0.4249,0.6875 -1.0206,1.25 -1.32378,1.25 C 135.24805,160 135,159.4375 135,158.75 Z m 48.125,0 c -0.4249,-0.6875 -0.17685,-1.25 0.55122,-1.25 0.72808,0 1.32378,0.5625 1.32378,1.25 0,0.6875 -0.24805,1.25 -0.55123,1.25 -0.30317,0 -0.89887,-0.5625 -1.32377,-1.25 z m 42.50885,0.0143 c -0.43792,-0.70858 0.0639,-0.91813 1.17622,-0.49126 2.16553,0.83098 2.56174,1.72695 0.7637,1.72695 -0.64692,0 -1.5199,-0.55607 -1.93992,-1.23569 z M 53.006235,152.1875 50.625,149.375 l 2.8125,2.38124 C 56.080556,153.99401 56.819051,155 55.818735,155 c -0.237196,0 -1.502821,-1.26563 -2.8125,-2.8125 z M 81.875,152.5 c 1.244358,-1.375 2.543719,-2.5 2.887469,-2.5 0.34375,0 -0.393111,1.125 -1.637469,2.5 -1.244358,1.375 -2.543719,2.5 -2.887469,2.5 -0.34375,0 0.393111,-1.125 1.637469,-2.5 z m 154.88124,-0.3125 -2.38124,-2.8125 2.8125,2.38124 c 2.64305,2.23777 3.38155,3.24376 2.38124,3.24376 -0.2372,0 -1.50283,-1.26563 -2.8125,-2.8125 z M 265.625,152.5 c 1.24436,-1.375 2.54372,-2.5 2.88747,-2.5 0.34375,0 -0.39311,1.125 -1.63747,2.5 -1.24436,1.375 -2.54373,2.5 -2.88748,2.5 -0.34375,0 0.39312,-1.125 1.63748,-2.5 z m -128.28445,-0.9375 c -1.55484,-1.98258 -1.51063,-2.02679 0.47195,-0.47195 1.20312,0.94356 2.1875,1.92794 2.1875,2.1875 0,1.0288 -1.02649,0.36664 -2.65945,-1.71555 z M 180,153.27805 c 0,-0.25956 0.98437,-1.24394 2.1875,-2.1875 1.98257,-1.55484 2.02679,-1.51063 0.47195,0.47195 C 181.02649,153.64469 180,154.30685 180,153.27805 Z m 100.09869,-45.25722 c 0.06,-1.45618 0.35617,-1.75237 0.7552,-0.75521 0.36109,0.90235 0.31669,1.98047 -0.0986,2.39584 -0.41537,0.41536 -0.7108,-0.32292 -0.65652,-1.64063 z m -170.00001,-2.5 c 0.06,-1.45618 0.35618,-1.75237 0.75521,-0.75521 0.36109,0.90235 0.31668,1.98047 -0.0987,2.39584 -0.41537,0.41536 -0.71081,-0.32292 -0.65653,-1.64063 z m 98.75001,0 c 0.06,-1.45618 0.35617,-1.75237 0.7552,-0.75521 0.36109,0.90235 0.31669,1.98047 -0.0986,2.39584 -0.41537,0.41536 -0.7108,-0.32292 -0.65652,-1.64063 z M 127.5,54.528056 c 0,-0.25957 0.98437,-1.243945 2.1875,-2.1875 1.98257,-1.554838 2.02679,-1.510626 0.47195,0.471944 C 128.52649,54.894685 127.5,55.556849 127.5,54.528056 Z M 189.84055,52.8125 c -1.55484,-1.98257 -1.51063,-2.026782 0.47195,-0.471944 C 192.39469,53.973517 193.05685,55 192.02805,55 c -0.25956,0 -1.24394,-0.984375 -2.1875,-2.1875 z M 157.8125,41.638342 c 1.20312,-0.314408 3.17187,-0.314408 4.375,0 1.20312,0.314411 0.21875,0.571654 -2.1875,0.571654 -2.40625,0 -3.39063,-0.257243 -2.1875,-0.571654 z"
       style="fill:#c5c5c5" />
    <path
       id="path4142"
       d="m 139.6875,276.67215 c 0.85937,-0.34676 2.26562,-0.34676 3.125,0 0.85937,0.34676 0.15625,0.63049 -1.5625,0.63049 -1.71875,0 -2.42188,-0.28373 -1.5625,-0.63049 z m 37.5,0 c 0.85937,-0.34676 2.26562,-0.34676 3.125,0 0.85937,0.34676 0.15625,0.63049 -1.5625,0.63049 -1.71875,0 -2.42188,-0.28373 -1.5625,-0.63049 z M 158.75,191.17622 c 0,-0.72807 0.5625,-0.97612 1.25,-0.55122 0.6875,0.4249 1.25,1.0206 1.25,1.32377 0,0.30318 -0.5625,0.55123 -1.25,0.55123 -0.6875,0 -1.25,-0.5957 -1.25,-1.32378 z m -0.3125,-28.25407 c 0.85937,-0.34676 2.26562,-0.34676 3.125,0 0.85937,0.34676 0.15625,0.63049 -1.5625,0.63049 -1.71875,0 -2.42188,-0.28373 -1.5625,-0.63049 z M 96.447369,112.5 c 0,-1.71875 0.283716,-2.42187 0.630482,-1.5625 0.346765,0.85938 0.346765,2.26563 0,3.125 -0.346766,0.85938 -0.630482,0.15625 -0.630482,-1.5625 z m 126.151321,-0.72917 c 0.06,-1.45617 0.35617,-1.75237 0.7552,-0.7552 0.36108,0.90234 0.31669,1.98046 -0.0986,2.39583 -0.41537,0.41536 -0.7108,-0.32292 -0.65652,-1.64063 z m -183.750006,-1.25 c 0.05998,-1.45617 0.356176,-1.75237 0.755208,-0.7552 0.361089,0.90234 0.31668,1.98046 -0.09869,2.39583 -0.415365,0.41536 -0.710801,-0.32292 -0.656525,-1.64063 z M 46.25,90.778056 c 0,-0.25957 0.984375,-1.243945 2.1875,-2.1875 1.98257,-1.554838 2.026782,-1.510626 0.471944,0.471944 C 47.276482,91.144685 46.25,91.806849 46.25,90.778056 Z m 183.75,0 c 0,-0.25957 0.98437,-1.243945 2.1875,-2.1875 1.98257,-1.554838 2.02679,-1.510626 0.47195,0.471944 C 231.02649,91.144685 230,91.806849 230,90.778056 Z M 271.09055,89.0625 c -1.55484,-1.98257 -1.51063,-2.026782 0.47195,-0.471944 2.08219,1.632961 2.74435,2.659444 1.71555,2.659444 -0.25956,0 -1.24394,-0.984375 -2.1875,-2.1875 z m -67.24186,-2.291666 c 0.06,-1.456179 0.35617,-1.752375 0.7552,-0.755209 0.36109,0.902344 0.31669,1.980469 -0.0986,2.395834 -0.41537,0.415364 -0.7108,-0.322918 -0.65652,-1.640625 z M 65.952074,81.615924 c 1.554891,-0.298992 3.804891,-0.28764 5,0.02522 1.19511,0.312866 -0.07707,0.557496 -2.827074,0.543622 -2.75,-0.01387 -3.727816,-0.269856 -2.172926,-0.568847 z m 183.749996,0 c 1.55489,-0.298992 3.80489,-0.28764 5,0.02522 1.19512,0.312865 -0.0771,0.557495 -2.82707,0.543621 -2.75,-0.01387 -3.72781,-0.269856 -2.17293,-0.568848 z"
       style="fill:#a3a3a3" />
    <path
       id="path4140"
       d="m 140.625,276.76644 c -2.0625,-0.29303 -8.25,-1.13167 -13.75,-1.86365 -13.11257,-1.74513 -30.928213,-7.69674 -38.75,-12.94509 -3.4375,-2.30652 -12.015625,-6.06021 -19.0625,-8.34151 -8.810736,-2.85232 -12.8125,-4.7412 -12.8125,-6.04768 0,-5.4364 15.620871,-69.85884 17.631839,-72.71592 3.183045,-4.52233 5.932341,-5.39748 32.993161,-10.50232 13.0625,-2.46414 24.875,-4.78142 26.25,-5.14948 1.375,-0.36808 -0.45313,1.36361 -4.0625,3.8482 -3.60937,2.48459 -6.5625,5.15076 -6.5625,5.92485 0,2.07736 22.60325,72.74205 23.6151,73.828 0.47497,0.50977 3.61009,-10.5996 6.96691,-24.6875 C 156.43885,204.02645 159.55194,192.5 160,192.5 c 0.44806,0 3.56115,11.52645 6.91799,25.61434 3.35682,14.0879 6.49193,25.19727 6.96691,24.6875 1.01185,-1.08595 23.6151,-71.75064 23.6151,-73.828 0,-0.77409 -2.95313,-3.44026 -6.5625,-5.92485 -3.60938,-2.48459 -5.4375,-4.21628 -4.0625,-3.8482 1.375,0.36806 13.1875,2.68534 26.25,5.14948 27.06083,5.10484 29.81011,5.97999 32.99316,10.50232 2.01096,2.85708 17.63184,67.27952 17.63184,72.71592 0,1.30587 -4.00582,3.19956 -12.8125,6.05694 -7.04688,2.28639 -15.625,5.99134 -19.0625,8.23322 -8.091,5.27684 -21.81915,10.16682 -35.42238,12.61749 -10.35198,1.86495 -47.9615,3.40785 -55.82762,2.29028 z M 41.875,231.64987 C 34.852404,230.07649 26.402524,226.93235 22.5,224.44057 20.09375,222.90419 14.328125,220.38692 9.6875,218.84665 4.2436035,217.03978 1.25,215.378 1.25,214.16292 c 0,-2.81468 8.6079216,-40.53173 10.112204,-44.30831 1.760437,-4.41966 3.983093,-5.32316 24.262796,-9.86266 23.148426,-5.18164 21.606198,-4.44829 17.80473,-8.46639 -4.107255,-4.3413 -15.687234,-23.24915 -16.692985,-27.25638 -0.421253,-1.67841 -0.199671,-3.74746 0.492404,-4.59791 0.692073,-0.85045 1.844537,-5.35546 2.561031,-10.01115 1.561175,-10.144325 5.390572,-17.449579 11.883113,-22.669144 4.269946,-3.43275 5.867577,-3.906062 14.509276,-4.298502 7.36779,-0.334589 10.734244,0.07669 13.951708,1.70448 9.553904,4.83354 14.191456,12.020047 16.000628,24.795116 0.627195,4.4288 1.776786,9.24154 2.55465,10.69499 1.13642,2.12342 0.90513,3.6835 -1.177184,7.94029 -4.121291,8.42498 -9.108547,16.56863 -13.472145,21.99854 -2.221845,2.76479 -3.564305,5.3207 -2.983244,5.67982 0.58106,0.35911 3.41229,1.02964 6.291623,1.49006 2.879331,0.46043 4.992262,1.08003 4.695404,1.37689 -0.29686,0.29685 -4.08572,1.36697 -8.419689,2.37801 -8.750046,2.04124 -15.146746,6.23305 -18.035129,11.81858 C 64.108643,175.43231 51.25,228.5264 51.25,231.77661 c 0,0.8084 -5.535156,0.73358 -9.375,-0.12674 z m 226.875,0.22522 c 0,-3.27103 -12.92194,-56.56517 -14.41519,-59.4528 -2.81505,-5.44372 -9.28395,-9.64784 -17.95914,-11.67162 -4.33396,-1.01105 -8.12282,-2.08116 -8.41968,-2.37801 -0.29685,-0.29686 1.81607,-0.91646 4.69541,-1.37689 2.87932,-0.46042 5.71761,-1.13531 6.3073,-1.49976 0.58969,-0.36444 -0.82963,-3.01576 -3.15401,-5.89181 -4.60964,-5.70368 -9.40017,-13.50816 -13.36703,-21.77685 -1.88247,-3.92393 -2.21764,-5.90283 -1.2925,-7.63147 0.68696,-1.28359 1.85626,-6.13495 2.59844,-10.7808 C 226.69639,90.931314 235.50872,82.5 251.875,82.5 c 16.37899,0 25.00924,8.26098 28.21005,27.00301 0.80987,4.74209 2.02861,9.31781 2.70831,10.16826 0.67969,0.85045 0.89115,2.9195 0.46989,4.59791 -1.00575,4.00723 -12.58573,22.91508 -16.69297,27.25638 -3.80148,4.0181 -5.3437,3.28475 17.80472,8.46639 20.28405,4.54048 22.50651,5.44427 24.25243,9.86266 1.47322,3.72826 10.12257,41.66193 10.12257,44.39481 0,1.11043 -3.22295,2.85818 -8.4375,4.5755 -4.64063,1.52832 -9.96263,3.84699 -11.82665,5.15262 -6.48878,4.5449 -29.73585,10.7191 -29.73585,7.89755 z m -114.72113,-53.47512 -5.34612,-7.77497 4.72112,-2.0948 c 2.59663,-1.15214 5.56488,-2.09479 6.59613,-2.09479 1.03125,0 3.9995,0.94265 6.59613,2.09479 l 4.72112,2.0948 -5.34612,7.77497 c -2.94038,4.27624 -5.62738,7.77498 -5.97113,7.77498 -0.34375,0 -3.03075,-3.49874 -5.97113,-7.77498 z m -3.40387,-18.0018 c -9.9953,-5.33546 -19.17883,-15.456 -27.08702,-29.8508 -2.28964,-4.16768 -5.77779,-9.92302 -7.75145,-12.78961 -4.37703,-6.35733 -5.77331,-15.17521 -2.79441,-17.64748 C 114.09645,99.193766 115,96.593495 115,94.331904 c 0,-8.67158 3.77164,-23.530975 7.87861,-31.039965 9.35708,-17.108014 29.86038,-24.713331 50.78939,-18.83938 17.68961,4.964781 27.24963,18.504462 30.38199,43.029498 0.74763,5.853619 2.17817,11.60522 3.17896,12.781333 2.74055,3.22064 0.93183,12.19934 -3.76311,18.68051 -2.15155,2.97014 -5.54128,8.50094 -7.5327,12.29067 -12.78549,24.33107 -31.63354,36.46304 -45.30814,29.1636 z"
       style="fill:#808080" />
  </g>
</svg>
