<?xml version="1.0" encoding="UTF-8" standalone="no"?>
<svg
   xmlns:dc="http://purl.org/dc/elements/1.1/"
   xmlns:cc="http://creativecommons.org/ns#"
   xmlns:rdf="http://www.w3.org/1999/02/22-rdf-syntax-ns#"
   xmlns:svg="http://www.w3.org/2000/svg"
   xmlns="http://www.w3.org/2000/svg"
   viewBox="0 0 226.72339 319.3624"
   height="319.3624"
   width="226.72339"
   version="1.1"
   id="svg2">
  <metadata
     id="metadata8">
    <rdf:RDF>
      <cc:Work
         rdf:about="">
        <dc:format>image/svg+xml</dc:format>
        <dc:type
           rdf:resource="http://purl.org/dc/dcmitype/StillImage" />
        <dc:title></dc:title>
      </cc:Work>
    </rdf:RDF>
  </metadata>
  <defs
     id="defs6" />
  <g
     transform="translate(-46.85211,-0.57731372)"
     id="g4138">
    <path
       id="path4144"
       d="m 46.85211,171.875 c 5.7e-5,-71.5 0.150896,-100.566378 0.335196,-64.59195 0.1843,35.97442 0.184254,94.47442 -1.05e-4,130 -0.184357,35.52557 -0.335149,6.09195 -0.335091,-65.40805 z m 226.25,0 c 5e-5,-71.5 0.15089,-100.566378 0.33519,-64.59195 0.18431,35.97442 0.18426,94.47442 -10e-5,130 -0.18436,35.52557 -0.33515,6.09195 -0.33509,-65.40805 z M 105.39857,297.8134 c 16.37547,-0.19748 42.81297,-0.19728 58.75,4.6e-4 15.93704,0.19774 2.53893,0.35932 -29.77357,0.35905 -32.3125,-2.5e-4 -45.351891,-0.16202 -28.97643,-0.35951 z m 54.70012,-82.29256 c 0.06,-1.45619 0.35617,-1.75238 0.7552,-0.75522 0.36108,0.90234 0.31669,1.98047 -0.0986,2.39584 -0.41537,0.41537 -0.7108,-0.32292 -0.65652,-1.64062 z m -52.28619,-3.9553 c 9.45313,-0.21235 24.92187,-0.21235 34.375,0 9.45312,0.21236 1.71875,0.3861 -17.1875,0.3861 -18.90625,0 -26.640625,-0.17374 -17.1875,-0.3861 z M 231.44736,193.75 c 0,-1.71875 0.28373,-2.42188 0.63049,-1.5625 0.34676,0.85937 0.34676,2.26562 0,3.125 -0.34676,0.85937 -0.63049,0.15625 -0.63049,-1.5625 z m -0.0986,-21.97916 c 0.06,-1.45619 0.35617,-1.75238 0.7552,-0.75522 0.36109,0.90234 0.31669,1.98047 -0.0986,2.39584 -0.41537,0.41537 -0.7108,-0.32292 -0.65652,-1.64062 z M 231.44736,150 c 0,-1.71875 0.28373,-2.42188 0.63049,-1.5625 0.34676,0.85937 0.34676,2.26562 0,3.125 -0.34676,0.85937 -0.63049,0.15625 -0.63049,-1.5625 z m -91.44991,-42.87242 0.62245,-25.25258 0.34281,24.28473 c 0.18855,13.3566 -0.0915,24.72027 -0.62244,25.25258 -0.5309,0.53233 -0.68517,-10.3958 -0.34282,-24.28473 z M 231.44736,128.75 c 0,-1.71875 0.28373,-2.42187 0.63049,-1.5625 0.34676,0.85937 0.34676,2.26562 0,3.125 -0.34676,0.85937 -0.63049,0.15625 -0.63049,-1.5625 z m -54.8084,-18.43526 c 10.18269,-0.21035 26.49519,-0.20986 36.25,0.001 9.75483,0.21094 1.42354,0.38304 -18.51396,0.38245 -19.9375,-6e-4 -27.91871,-0.17318 -17.73604,-0.38353 z m -20.29027,-3.54391 c 0.06,-1.45618 0.35617,-1.75237 0.7552,-0.75521 0.36108,0.90235 0.31668,1.98047 -0.0986,2.39584 -0.41537,0.41536 -0.7108,-0.32292 -0.65652,-1.64063 z m 75,0 c 0.06,-1.45618 0.35617,-1.75237 0.7552,-0.75521 0.36109,0.90235 0.31669,1.98047 -0.0986,2.39584 -0.41537,0.41536 -0.7108,-0.32292 -0.65652,-1.64063 z m -0.31807,-21.363551 c 0.53342,-2.616199 0.84774,-2.930526 1.21202,-1.212004 0.2705,1.276151 -0.0536,2.865676 -0.72019,3.532278 -0.78268,0.782671 -0.95689,-0.03925 -0.49183,-2.320274 z m -74.68193,-1.136445 c 0.06,-1.456179 0.35617,-1.752375 0.7552,-0.755209 0.36108,0.902344 0.31668,1.980469 -0.0986,2.395834 -0.41537,0.415364 -0.7108,-0.322918 -0.65652,-1.640625 z M 114.21758,35.625 c 0.003,-7.5625 0.2087,-10.495086 0.45752,-6.516859 0.24881,3.978228 0.2465,10.165728 -0.005,13.75 -0.25163,3.584273 -0.45521,0.329359 -0.45239,-7.233141 z m 91.25001,0 c 0.002,-7.5625 0.2087,-10.495086 0.45751,-6.516859 0.24881,3.978228 0.2465,10.165728 -0.005,13.75 -0.25176,3.584273 -0.45534,0.329359 -0.45251,-7.233141 z"
       style="fill:#c3c3c3" />
    <path
       id="path4142"
       d="M 221.25,269.375 C 237.39528,253.21875 250.8863,240 251.23005,240 c 0.34375,0 -12.58478,13.21875 -28.73005,29.375 -16.14528,16.15625 -29.6363,29.375 -29.98005,29.375 -0.34375,0 12.58478,-13.21875 28.73005,-29.375 z m -28.23591,-3.125 c 0,-12.03125 0.18747,-16.95313 0.41662,-10.9375 0.22914,6.01562 0.22914,15.85937 0,21.875 -0.22915,6.01562 -0.41662,1.09375 -0.41662,-10.9375 z M 107.8125,219.06554 c 9.45313,-0.21235 24.92187,-0.21235 34.375,0 9.45312,0.21236 1.71875,0.3861 -17.1875,0.3861 -18.90625,0 -26.640625,-0.17374 -17.1875,-0.3861 z m 18.21375,-43.75239 c 19.47069,-0.19381 50.97069,-0.19366 70,3.2e-4 19.02931,0.194 3.09875,0.35257 -35.40125,0.35239 -38.5,-1.8e-4 -54.06944,-0.15891 -34.59875,-0.35271 z m -0.71375,-7.49983 c 19.07812,-0.19407 50.29687,-0.19407 69.375,0 19.07812,0.19408 3.46875,0.35287 -34.6875,0.35287 -38.15625,0 -53.76562,-0.15879 -34.6875,-0.35287 z m 51.32646,-64.99858 c 10.18269,-0.21035 26.49519,-0.20986 36.25,0.001 9.75483,0.21094 1.42354,0.38304 -18.51396,0.38245 -19.9375,-6e-4 -27.91871,-0.17318 -17.73604,-0.38353 z M 137.8125,50.314405 c 12.20312,-0.20465 32.17187,-0.20465 44.375,0 12.20312,0.20465 2.21875,0.372091 -22.1875,0.372091 -24.40625,0 -34.39062,-0.167441 -22.1875,-0.372091 z M 89.950076,45.333149 106.15372,44.928108 106.5964,34.026554 107.03908,23.125 l -0.082,11.25 -0.082,11.25 -16.564286,0.0566 -16.564281,0.05659 16.20364,-0.405041 z M 213.02955,44.577011 c -0.35309,-0.920142 -0.44864,-6.123267 -0.21233,-11.5625 l 0.42967,-9.889511 0.25156,10.901219 0.25155,10.901218 16.5625,0.388318 16.5625,0.388317 -16.60173,0.272964 c -12.90722,0.212219 -16.7446,-0.09934 -17.24372,-1.400025 z M 152.59869,14.270834 c 0.06,-1.456179 0.35617,-1.752375 0.7552,-0.755209 0.36108,0.902344 0.31668,1.980469 -0.0986,2.395834 -0.41537,0.415363 -0.7108,-0.322918 -0.65652,-1.640625 z m 13.75,0 c 0.06,-1.456179 0.35617,-1.752375 0.7552,-0.755209 0.36109,0.902344 0.31669,1.980469 -0.0986,2.395834 -0.41537,0.415363 -0.7108,-0.322918 -0.65652,-1.640625 z M 130.35021,14.07966 c 3.28638,-0.258345 8.34888,-0.255229 11.25,0.0069 2.90114,0.262155 0.21229,0.473529 -5.97521,0.46972 -6.1875,-0.0038 -8.56115,-0.2183 -5.27479,-0.476646 z m 48.71229,0.0015 c 3.26563,-0.257499 8.60938,-0.257499 11.875,0 3.26563,0.257498 0.59375,0.468179 -5.9375,0.468179 -6.53125,0 -9.20312,-0.210681 -5.9375,-0.468179 z"
       style="fill:#b4b4b4" />
    <path
       id="path4140"
       d="M 62.068986,318.17669 C 56.106907,316.05091 51.455211,311.86277 49.213901,306.60265 47.798605,303.28109 47.5,279.80811 47.5,171.875 47.5,29.009266 47.127845,36.190799 54.86885,29.677172 60.723469,24.750835 66.106935,23.76468 87.1875,23.756971 l 19.0625,-0.007 0,10.625 0,10.625 L 90,45 c -14.583334,0 -16.50641,0.25641 -18.75,2.5 -2.465966,2.465966 -2.5,4.166666 -2.5,124.92912 l 0,122.42912 2.778132,1.94588 c 2.419839,1.69492 10.441416,1.94588 62.197478,1.94588 l 59.41934,0 29.05252,-29.07228 29.05253,-29.07226 0,-95.30274 C 251.25,51.666666 251.20627,49.95628 248.75,47.5 246.50641,45.25641 244.58334,45 230,45 l -16.25,0 0,-10.625 0,-10.625 19.0625,0.007 c 21.08056,0.0077 26.46402,0.993864 32.31865,5.920201 7.741,6.513598 7.36885,-0.667935 7.36885,142.197799 0,107.56381 -0.30188,131.42779 -1.70504,134.78601 -2.17382,5.20271 -8.31256,10.37908 -14.27127,12.03398 -3.01253,0.83666 -37.20534,1.27421 -97.14869,1.24317 -75.085616,-0.0389 -93.404798,-0.3705 -97.306014,-1.76147 z M 193.75,264.71881 c 0,-20.77555 0.15154,-22.21195 2.47451,-23.45517 1.5365,-0.8223 10.30818,-1.19435 23.13995,-0.98148 l 20.66543,0.34284 -23.13994,23.11232 -23.13995,23.11234 0,-22.13085 z M 89.444716,217.6128 c -0.386555,-0.62545 -0.359571,-2.0317 0.05996,-3.125 0.67205,-1.75133 4.910572,-1.9878 35.629064,-1.9878 l 34.86626,0 0,3.125 0,3.125 -34.92622,0 c -19.62616,0 -35.234127,-0.49818 -35.629067,-1.1372 z m 0.04642,-22.13589 c -2.109029,-5.49604 -1.833675,-5.51593 71.608054,-5.17484 l 69.52581,0.32293 0,3.125 0,3.125 -70.17481,0.32285 c -63.983985,0.29436 -70.243971,0.14254 -70.959055,-1.72094 z M 89.69287,173.4375 c -1.719751,-4.67648 -1.552735,-4.6875 71.03629,-4.6875 l 70.52084,0 0,3.125 0,3.125 -70.49126,0 c -55.25323,0 -70.615479,-0.33776 -71.06587,-1.5625 z m 0.447268,-21.39365 c -0.788299,-0.94984 -1.080348,-2.64668 -0.648998,-3.77076 0.715084,-1.86348 6.97507,-2.0153 70.95906,-1.72094 l 70.1748,0.32285 0,3.125 0,3.125 -69.5258,0.32292 c -57.91729,0.269 -69.7651,0.0345 -70.959062,-1.40407 z m 0.135887,-21.01783 c -1.757032,-1.75703 -2.191291,-45.54249 -0.478453,-48.241286 0.772723,-1.217521 6.701279,-1.510511 25.293358,-1.25 L 139.375,81.875 l 0,25 0,25 -23.78647,0.33852 c -17.447215,0.2483 -24.193177,-0.0681 -25.312505,-1.1875 z m 67.683385,-0.3818 c -0.39979,-1.04182 -0.39979,-2.74662 0,-3.78845 0.63024,-1.64237 5.50908,-1.85011 36.69624,-1.5625 l 35.96935,0.33173 0,3.125 0,3.125 -35.96935,0.33172 c -31.18716,0.28762 -36.066,0.0799 -36.69624,-1.5625 z M 157.5,106.875 l 0,-3.125 36.875,0 36.875,0 0,3.125 0,3.125 -36.875,0 -36.875,0 0,-3.125 z m 0.45941,-19.980779 c -0.39979,-1.041821 -0.39979,-2.746621 0,-3.788442 0.63024,-1.642382 5.50908,-1.850119 36.69624,-1.5625 L 230.625,81.875 l 0,3.125 0,3.125 -35.96935,0.331721 c -31.18716,0.287619 -36.066,0.07989 -36.69624,-1.5625 z M 115,35.793574 c 0,-12.479515 0.31493,-14.606789 2.59073,-17.5 C 120.09041,15.115741 120.6346,15 133.07661,15 l 12.89516,0 0.81059,-4.320836 c 1.48403,-7.9104864 10.63043,-12.3160055 18.63013,-8.9735149 4.29357,1.7939698 8.33751,7.302581 8.33751,11.3572759 0,1.625589 2.09595,1.937075 13.03427,1.937075 12.59229,0 13.12213,0.111687 15.625,3.293574 2.2758,2.893211 2.59073,5.020485 2.59073,17.5 L 205,50 l -45,0 -45,0 0,-14.206426 z M 165,18.75 c 3.00865,-3.008655 3.12584,-4.800227 0.55412,-8.471867 C 161.88629,5.0415763 152.5,8.1873289 152.5,14.653132 c 0,2.458459 4.70497,6.596868 7.5,6.596868 1.375,0 3.625,-1.125 5,-2.5 z"
       style="fill:#808080" />
  </g>
</svg>
