<?xml version="1.0" encoding="UTF-8" standalone="no"?>
<svg
   xmlns:dc="http://purl.org/dc/elements/1.1/"
   xmlns:cc="http://creativecommons.org/ns#"
   xmlns:rdf="http://www.w3.org/1999/02/22-rdf-syntax-ns#"
   xmlns:svg="http://www.w3.org/2000/svg"
   xmlns="http://www.w3.org/2000/svg"
   viewBox="0 0 319.25067 307.04095"
   height="307.04095"
   width="319.25067"
   version="1.1"
   id="svg2">
  <metadata
     id="metadata8">
    <rdf:RDF>
      <cc:Work
         rdf:about="">
        <dc:format>image/svg+xml</dc:format>
        <dc:type
           rdf:resource="http://purl.org/dc/dcmitype/StillImage" />
        <dc:title></dc:title>
      </cc:Work>
    </rdf:RDF>
  </metadata>
  <defs
     id="defs6" />
  <path
     id="path4138"
     d="m 105.68394,306.76893 c -1.71875,-0.28975 -7.343754,-1.13166 -12.500004,-1.87093 -20.9965,-3.01028 -41.35076,-9.75864 -50.50145,-16.74353 -3.21643,-2.45515 -12.36324,-6.45858 -24.19308,-10.58894 -17.3122803,-6.04457 -18.9654803,-6.87936 -18.3996303,-9.2909 0.34194,-1.45732 5.07867,-22.29427 10.5260703,-46.30438 6.42488,-28.31847 10.74051,-44.78605 12.28446,-46.875 4.6022,-6.22675 10.99287,-8.30319 46.31611,-15.04889 18.78661,-3.58768 34.357274,-6.32327 34.601464,-6.07909 0.24419,0.24419 -3.44878,2.96708 -8.206614,6.05085 -4.75783,3.08379 -8.65662,6.09957 -8.66397,6.70174 -0.0181,1.48194 28.783454,92.19935 29.968484,94.393 0.55067,1.01936 4.52376,-12.93433 9.60977,-33.75 l 8.67095,-35.48786 8.60993,35.3213 c 4.73545,19.42671 8.9663,34.89546 9.40186,34.375 1.03065,-1.23152 30.06976,-93.00507 30.01636,-94.86199 -0.0224,-0.77861 -3.71372,-3.80873 -8.20296,-6.73357 -4.48922,-2.92485 -7.92941,-5.55074 -7.64485,-5.8353 0.28456,-0.28457 16.47082,2.59832 35.96949,6.40641 23.64895,4.61865 36.46855,7.6827 38.50512,9.20321 6.7964,5.07425 7.85228,8.18885 18.40165,54.28087 5.70801,24.93923 10.39005,45.69653 10.40453,46.1273 0.0145,0.43079 -8.55182,3.76382 -19.03619,7.40676 -10.48438,3.64295 -20.68956,7.96227 -22.6782,9.5985 -5.58925,4.59882 -14.59474,8.75998 -26.29778,12.15139 -20.73809,6.00966 -30.7373,7.21319 -63.21152,7.60827 -16.84375,0.20493 -32.03125,0.13554 -33.75,-0.15422 z m 22.12204,-126.15379 c -3.96143,-5.80811 -7.11461,-10.99445 -7.00708,-11.52518 0.10753,-0.53073 3.36003,-2.15095 7.22778,-3.60047 7.41562,-2.77916 7.37761,-2.78288 19.30486,1.88479 l 3.5226,1.37855 -7.16206,10.31107 c -3.93914,5.6711 -7.50439,10.71618 -7.92278,11.21128 -0.4184,0.49508 -4.00189,-3.85193 -7.96332,-9.66004 z m -4.56499,-23.8132 c -9.89399,-4.60549 -25.377684,-20.80636 -32.557054,-34.06509 -3.09375,-5.71346 -6.86437,-12.1822 -8.37915,-14.37498 -7.33407,-10.61671 -9.54752,-15.233075 -10.10981,-21.084967 -0.46717,-4.861875 -0.0619,-6.934972 1.86801,-9.555419 1.73674,-2.358158 2.69773,-6.299813 3.25393,-13.346484 1.67987,-21.282948 8.00828,-36.551749 19.59592,-47.279864 C 107.09158,7.6714207 114.9806,4.742574 132.09385,4.03397 c 19.89169,-0.82365 31.64898,3.2085397 43.33236,14.860951 9.97333,9.946885 17.75773,31.419694 17.75773,48.983647 0,5.146473 0.58936,7.267326 2.5,8.996432 4.89429,4.429264 1.36045,22.35108 -5.5315,28.05305 -1.19865,0.99168 -4.16634,5.77293 -6.59488,10.62499 -12.64098,25.25595 -33.56625,44.42252 -48.49862,44.42252 -2.75,0 -8.06807,-1.42813 -11.81795,-3.17362 z m 114.00545,-6.45003 c -1.15513,-0.41418 -1.5625,-5.42156 -1.5625,-19.20608 l 0,-18.64583 -18.24775,0 -18.24775,0 2.71363,-4.0625 c 1.49249,-2.23437 3.01958,-5.04687 3.39353,-6.25 0.61235,-1.97011 2.77723,-2.1875 21.78413,-2.1875 l 21.10421,0 0,12.79017 0,12.79016 12.83384,-12.79016 L 273.85163,100 l 16.54115,0 16.54116,0 0,-43.75 0,-43.75 -61.05626,0 c -60.87148,0 -61.06348,-0.0081 -63.4375,-2.6829983 -1.30969,-1.475648 -4.57502,-4.288148 -7.25629,-6.2499987 L 170.30884,0 l 70.74285,0 70.74284,0 3.50721,3.01569 3.5072,3.0156897 0.35621,47.8698993 c 0.25723,34.56772 -0.0522,48.855921 -1.11357,51.418261 -2.44398,5.9003 -6.70215,7.18046 -23.88423,7.18046 l -15.39075,0 -18.10882,18.20639 c -18.77937,18.88055 -20.80837,20.58244 -23.42134,19.64552 z m -32.8125,-88.47691 0,-3.201948 15.3125,0.350974 c 14.36217,0.329192 15.3125,0.506129 15.3125,2.850974 0,2.344845 -0.95033,2.521783 -15.3125,2.850974 l -15.3125,0.350974 0,-3.201948 z m -2.99126,-17.602234 c -0.41731,-1.08748 -0.75874,-2.21248 -0.75874,-2.5 0,-0.287521 21.9375,-0.522766 48.75,-0.522766 47.91666,0 48.75,0.04274 48.75,2.5 0,2.456589 -0.83334,2.5 -47.99126,2.5 -42.60865,0 -48.07637,-0.221764 -48.75,-1.977234 z m -7.5,-18.75 c -0.41731,-1.08748 -0.75874,-2.21248 -0.75874,-2.5 0,-0.287521 23.625,-0.522766 52.5,-0.522766 51.66666,0 52.5,0.03969 52.5,2.5 0,2.459735 -0.83334,2.5 -51.74126,2.5 -46.02815,0 -51.82504,-0.21832 -52.5,-1.977234 z"
     style="fill:#ffffff;fill-opacity:1" />
</svg>
