<?xml version="1.0" encoding="UTF-8" standalone="no"?>
<svg
   xmlns:dc="http://purl.org/dc/elements/1.1/"
   xmlns:cc="http://creativecommons.org/ns#"
   xmlns:rdf="http://www.w3.org/1999/02/22-rdf-syntax-ns#"
   xmlns:svg="http://www.w3.org/2000/svg"
   xmlns="http://www.w3.org/2000/svg"
   viewBox="0 0 320.07471 202.33578"
   height="202.33578"
   width="320.07471"
   version="1.1"
   id="svg2">
  <metadata
     id="metadata8">
    <rdf:RDF>
      <cc:Work
         rdf:about="">
        <dc:format>image/svg+xml</dc:format>
        <dc:type
           rdf:resource="http://purl.org/dc/dcmitype/StillImage" />
        <dc:title></dc:title>
      </cc:Work>
    </rdf:RDF>
  </metadata>
  <defs
     id="defs6" />
  <path
     id="path4138"
     d="m 159.7352,191.48458 c -8.98015,-8.78754 -11.08904,-10.32743 -11.08904,-8.09707 0,1.51478 2.28721,5.23547 5.0827,8.2682 l 5.08269,5.51408 -3.18334,2.0858 c -2.35269,1.54155 -4.73901,1.89725 -9.1452,1.36318 -3.27901,-0.39745 -8.21185,-0.72757 -10.96185,-0.73358 -6.18193,-0.0135 -12.75602,-3.88482 -14.78285,-8.70523 -1.37827,-3.27793 -1.73532,-3.44656 -3.91821,-1.85038 -3.11871,2.28045 -11.09748,2.2478 -15.56746,-0.0637 -4.4518,-2.30211 -8.10523,-9.7488 -7.14308,-14.55955 0.60451,-3.02258 0.25109,-3.70729 -2.23572,-4.33144 -5.11598,-1.28402 -9.69647,-7.25562 -10.40808,-13.56906 -0.50777,-4.50494 -1.13708,-5.72004 -2.96244,-5.72004 -1.27474,0 -4.15471,-1.6415 -6.39994,-3.64779 -3.75372,-3.35425 -4.08438,-4.25935 -4.10913,-11.24757 l -0.0269,-7.59978 -9.66059,-9.71759 c -5.31332,-5.34467 -9.66059,-10.75413 -9.66059,-12.02105 0,-2.77362 43.57611,-65.372917 46.25,-66.440485 1.03125,-0.411731 8.72509,-1.074527 17.09742,-1.472881 13.46693,-0.640752 16.20585,-0.40854 23.75,2.01358 l 8.52758,2.737859 19.56972,-7.552145 c 10.86249,-4.191936 21.56333,-7.552145 24.05039,-7.552145 2.46435,0 14.08465,3.451066 25.82286,7.669038 l 21.34223,7.669032 16.7949,33.572036 c 9.23719,18.46461 16.7949,34.363631 16.7949,35.331141 0,0.96751 -5.9104,7.23225 -13.13421,13.92165 l -13.13423,12.16252 4.93153,5.35008 c 7.35395,7.97809 8.18431,16.46367 2.40525,24.57961 -2.88362,4.04966 -8.4032,7.24489 -12.51519,7.24489 -1.95492,0 -8.31165,-5.44385 -20.70525,-17.73183 -13.94114,-13.82231 -18.21603,-17.40005 -19.38897,-16.2271 -1.17297,1.17297 2.27603,5.29274 15.64317,18.6855 9.43135,9.44944 17.1479,18.05663 17.1479,19.1271 0,3.03144 -8.76762,12.53125 -13.32147,14.43398 -8.61045,3.59767 -9.34723,3.1617 -31.2762,-18.50769 -15.85892,-15.67117 -20.79805,-19.88424 -21.95488,-18.72741 -1.15684,1.15684 2.27885,5.27189 15.27191,18.29175 l 16.76455,16.79912 -2.42945,2.6863 c -3.77007,4.16864 -11.18266,7.42028 -16.91562,7.42028 -4.86258,0 -5.95173,-0.72508 -16.2998,-10.85121 z m -19.83904,-0.39879 c 3.5969,-3.5969 3.23605,-9.23958 -0.79358,-12.40928 -1.81146,-1.4249 -3.9856,-2.59072 -4.83142,-2.59072 -0.84583,0 -3.01996,1.16582 -4.83143,2.59072 -6.07433,4.77807 -2.79126,14.90928 4.83143,14.90928 1.71875,0 4.25,-1.125 5.625,-2.5 z m -19.71501,-13.95081 c 8.21586,-8.76907 9.57847,-14.252 4.43688,-17.85332 -5.71874,-4.00555 -11.27492,-1.36101 -19.82706,9.43694 -4.45463,5.62444 -5.01373,10.03269 -1.73232,13.65861 4.30057,4.75208 9.14961,3.26751 17.1225,-5.24223 z m -15.74552,-17.75972 c 7.29487,-7.29487 7.55352,-13.32503 0.72581,-16.9216 -3.97999,-2.09648 -6.73092,-0.89458 -12.65,5.52684 -5.89164,6.39168 -6.35071,9.48349 -2.0471,13.7871 4.41475,4.41475 7.73227,3.84669 13.97129,-2.39234 z M 88.55544,141.54221 c 1.4249,-1.81146 2.59072,-3.9856 2.59072,-4.83142 0,-0.84583 -1.16582,-3.01996 -2.59072,-4.83143 -4.77807,-6.07432 -14.90928,-2.79126 -14.90928,4.83143 0,7.62269 10.13121,10.90575 14.90928,4.83142 z m 162.04322,-18.68496 11.68769,-10.72852 -15.73002,-31.488841 -15.73,-31.488816 -20.15258,-7.18501 c -11.08393,-3.951754 -21.27759,-7.183867 -22.65259,-7.182475 -2.8282,0.0029 -39.31448,13.492875 -42.1234,15.574215 -2.80308,2.077 -27.68551,57.794247 -26.81873,60.053037 1.05729,2.75526 6.36178,4.50352 10.90649,3.59457 5.46946,-1.09388 16.32276,-11.52816 20.84618,-20.041331 4.31291,-8.117 7.81446,-20.28723 7.81446,-27.16045 0,-5.33297 1.42819,-6.16307 8.17839,-4.75348 3.95041,0.82493 4.9535,1.59212 4.98078,3.80947 0.0239,1.94105 9.8007,12.54846 32.49099,35.251351 17.85124,17.86114 32.94233,32.47482 33.53573,32.47482 0.5934,0 6.33837,-4.82784 12.76661,-10.72854 z m 30.5475,-11.4609 c -3.95955,-1.97802 -6.12585,-5.66202 -22.8125,-38.794871 -10.14063,-20.135126 -18.4375,-38.050113 -18.4375,-39.811089 0,-1.760976 0.92515,-5.151377 2.05589,-7.534223 1.7388,-3.664249 4.34422,-5.479563 16.89292,-11.770035 l 14.83705,-7.4375853 23.19635,46.5696263 23.19635,46.569616 -14.63898,7.199001 c -8.05145,3.95945 -15.826,7.19812 -17.27679,7.19706 -1.45079,-0.001 -4.60654,-0.98545 -7.01279,-2.1875 z m 18.77527,-15.357771 c 3.33748,-6.23614 -4.07563,-11.45799 -9.11378,-6.41983 -2.22905,2.22904 -2.39922,3.07601 -1.16308,5.78905 1.86344,4.08979 8.21694,4.47975 10.27686,0.63078 z M 17.2797,97.162449 C 12.1875,93.629609 6.2164,89.400049 4.01058,87.763439 L 0,84.787759 29.54213,42.624283 C 45.7903,19.434362 59.22692,0.26643668 59.40128,0.02888868 60.02642,-0.82278332 84.81247,17.418691 86.70876,20.126036 c 2.27422,3.246903 2.54364,11.213878 0.51078,15.104433 -4.60767,8.818314 -44.72048,64.09059 -47.93539,66.051161 -6.56303,4.00239 -11.67834,3.04481 -22.00445,-4.119181 z m 12.36646,-10.07666 c 1.92813,-1.92813 1.92813,-6.32188 0,-8.25 -3.50624,-3.50625 -9.75,-0.86466 -9.75,4.125 0,3.35057 2.27443,5.625 5.625,5.625 1.44375,0 3.3,-0.675 4.125,-1.5 z"
     style="fill:#ffffff;fill-opacity:1" />
</svg>
